<mxfile host="65bd71144e">
    <diagram id="ksJ8OBkkBK5ntvKOhaUa" name="Page-1">
        <mxGraphModel dx="839" dy="720" grid="1" gridSize="10" guides="1" tooltips="1" connect="1" arrows="1" fold="1" page="1" pageScale="1" pageWidth="1169" pageHeight="827" math="0" shadow="0">
            <root>
                <mxCell id="0"/>
                <mxCell id="1" parent="0"/>
                <mxCell id="35" value="You were removed from the meeting" style="text;html=1;strokeColor=none;fillColor=none;align=center;verticalAlign=middle;whiteSpace=wrap;rounded=0;fontSize=28;fontStyle=0" parent="1" vertex="1">
                    <mxGeometry x="405" y="340" width="360" height="30" as="geometry"/>
                </mxCell>
                <mxCell id="37" value="" style="ellipse;whiteSpace=wrap;html=1;aspect=fixed;fontSize=16;fontColor=#B266FF;fillColor=#B266FF;" parent="1" vertex="1">
                    <mxGeometry x="960" y="25" width="40" height="40" as="geometry"/>
                </mxCell>
                <mxCell id="38" value="Username" style="text;html=1;strokeColor=none;fillColor=none;align=left;verticalAlign=middle;whiteSpace=wrap;rounded=0;" parent="1" vertex="1">
                    <mxGeometry x="1020" y="35" width="60" height="20" as="geometry"/>
                </mxCell>
                <mxCell id="39" value="Sign Out" style="text;html=1;strokeColor=none;fillColor=none;align=left;verticalAlign=middle;whiteSpace=wrap;rounded=0;fontColor=#B266FF;" parent="1" vertex="1">
                    <mxGeometry x="1090" y="35" width="50" height="20" as="geometry"/>
                </mxCell>
                <mxCell id="46" value="Back to home" style="rounded=0;whiteSpace=wrap;html=1;" parent="1" vertex="1">
                    <mxGeometry x="510" y="410" width="150" height="40" as="geometry"/>
                </mxCell>
            </root>
        </mxGraphModel>
    </diagram>
</mxfile>